<?xml version="1.0" encoding="UTF-8" standalone="no"?>
<!-- Created with Inkscape (http://www.inkscape.org/) -->

<svg
   width="135.46666mm"
   height="135.46664mm"
   viewBox="0 0 135.46666 135.46664"
   version="1.1"
   id="svg5"
   xml:space="preserve"
   xmlns="http://www.w3.org/2000/svg"
   xmlns:svg="http://www.w3.org/2000/svg"><defs
     id="defs2" /><g
     id="layer3"
     style="display:inline"
     transform="translate(-20.993929,-96.519033)"><rect
       style="fill:none;fill-opacity:1;stroke:#000000;stroke-width:0;stroke-linecap:round;stroke-linejoin:round;stroke-dasharray:none"
       id="rect4967"
       width="135.46666"
       height="135.46666"
       x="20.993929"
       y="96.519035" /><g
       id="g4913"
       transform="translate(10.599804,-12.237848)"><path
         style="display:inline;fill:#d1ac6e;fill-opacity:1;stroke:#000000;stroke-width:1.09194;stroke-linecap:round;stroke-linejoin:round;stroke-dasharray:none"
         d="m 10.940082,166.30467 1.172033,4.66316 6.150492,2.24437 -5.408562,-0.54656 5.451573,9.65193 -6.698875,17.50141 5.053726,-0.37214 c 5.172842,-3.48616 10.503897,-7.23848 16.870843,-12.73355 4.893791,-2.3139 10.700094,1.4033 16.053641,2.12806 l -6.042964,1.2443 c 0.14351,5.73917 2.362339,6.47151 3.579283,9.37283 5.185522,0.33177 11.550079,-2.10728 15.334555,-2.16295 10.45323,3.85786 20.296096,4.29286 30.032031,4.12822 l -3.085999,1.83736 c -1.233765,2.9652 -2.293909,8.1117 -1.215042,9.10537 2.691667,2.47915 14.681883,-10.02648 14.451503,-10.3264 17.68025,-3.9223 27.4368,-9.78781 41.83839,-18.62939 1.40355,-1.88794 0.66103,-2.67062 0.48387,-3.74448 l -3.67738,0.77913 2.70494,-4.05706 c -5.76497,-5.43049 -9.38833,-7.07385 -14.82175,-10.05932 -6.13397,-4.38257 -17.24414,-10.89406 -30.339204,-12.59366 l -3.059784,-7.19965 0.225804,3.8724 c -1.589431,-3.82537 -4.394976,-7.16364 -8.161225,-10.11708 1.348835,2.33198 1.692901,3.98921 0.139791,4.37243 -1.651058,-0.85716 -3.567202,-2.51073 -4.913943,-2.45367 2.53958,2.63388 1.045872,3.45022 -0.419353,4.27942 -1.181084,-0.66414 -2.369178,-1.26089 -3.634381,-1.11637 2.232714,2.02955 1.667961,3.23584 -0.279567,4.03519 -1.005098,-0.97202 -2.070998,-1.28645 -3.161268,-1.3373 2.510719,2.00105 1.239089,3.09302 -0.462362,4.08172 -0.774859,-0.61998 -1.602996,-1.01588 -2.548369,-0.91869 1.257904,1.04421 1.921207,2.04378 0.462363,2.88394 -0.921139,-0.51088 -1.842279,-0.53168 -2.76342,-0.22092 1.63389,1.737 0.495872,2.76745 -0.62365,3.8026 -5.011675,-0.93825 -10.124558,-1.71434 -15.645046,-1.83734 -5.053226,3.93767 -7.590005,9.31531 -11.01067,14.18719 l 5.516088,-0.18607 c -2.663238,1.47656 -3.99337,3.28689 -10.494544,3.80262 -8.392466,-1.04267 -21.197892,-9.34055 -27.053561,-7.36105 z"
         id="path1642" /><path
         style="fill:none;stroke:#000000;stroke-width:1.09194;stroke-linecap:round;stroke-linejoin:round;stroke-dasharray:none"
         d="m 48.488188,169.8631 c 9.806747,-9.0143 27.544877,-13.89012 50.338996,-16.1278"
         id="path1644" /><path
         style="fill:none;stroke:#000000;stroke-width:0.545971;stroke-linecap:round;stroke-linejoin:round;stroke-dasharray:none"
         d="m 50.666533,168.02784 c -1.765756,-0.46684 -4.041338,-0.66113 -6.037308,-0.45505"
         id="path1646" /><path
         style="fill:none;stroke:#000000;stroke-width:0.545971;stroke-linecap:round;stroke-linejoin:round;stroke-dasharray:none"
         d="m 52.499701,166.69575 c -1.736958,-0.86179 -4.038062,-1.46637 -6.49183,-1.27789"
         id="path1648" /><path
         style="fill:none;stroke:#000000;stroke-width:0.545971;stroke-linecap:round;stroke-linejoin:round;stroke-dasharray:none"
         d="m 54.647284,165.32324 c -2.040306,-1.06565 -4.337731,-2.07909 -7.282489,-1.98389"
         id="path1650" /><path
         style="fill:none;stroke:#000000;stroke-width:0.545971;stroke-linecap:round;stroke-linejoin:round;stroke-dasharray:none"
         d="m 57.061395,163.97159 c -2.474533,-1.3744 -4.906459,-2.37254 -7.807611,-2.76118"
         id="path1652" /><path
         style="fill:none;stroke:#000000;stroke-width:0.545971;stroke-linecap:round;stroke-linejoin:round;stroke-dasharray:none"
         d="m 59.607236,162.72093 c -2.999658,-1.71175 -5.96584,-2.86036 -8.905028,-3.55479"
         id="path1654" /><path
         style="fill:none;stroke:#000000;stroke-width:0.545971;stroke-linecap:round;stroke-linejoin:round;stroke-dasharray:none"
         d="m 61.521031,161.75882 c -2.698335,-2.00788 -5.75302,-3.44479 -8.994493,-4.58243"
         id="path1656" /><path
         style="fill:none;stroke:#000000;stroke-width:0.545971;stroke-linecap:round;stroke-linejoin:round;stroke-dasharray:none"
         d="m 64.083565,160.85936 c -2.158328,-2.24372 -5.35345,-3.63501 -8.64183,-4.94961"
         id="path1658" /><path
         style="fill:none;stroke:#000000;stroke-width:0.545971;stroke-linecap:round;stroke-linejoin:round;stroke-dasharray:none"
         d="m 66.882789,159.86891 c -1.216803,-1.49174 -3.232843,-2.42324 -5.146728,-3.42633"
         id="path1660" /><path
         style="fill:none;stroke:#000000;stroke-width:1.09194;stroke-linecap:round;stroke-linejoin:round;stroke-dasharray:none"
         d="m 73.014884,154.11764 c 2.983288,1.25183 3.413585,1.91928 4.770693,2.79887"
         id="path1662" /><path
         style="fill:none;stroke:#000000;stroke-width:1.09194;stroke-linecap:round;stroke-linejoin:round;stroke-dasharray:none"
         d="m 75.100891,152.15239 c 2.519038,0.72573 4.898464,2.20639 7.248139,3.84798"
         id="path1664" /><path
         style="fill:none;stroke:#000000;stroke-width:1.09194;stroke-linecap:round;stroke-linejoin:round;stroke-dasharray:none"
         d="m 78.72452,149.40797 c 2.705364,1.56354 5.071302,3.59321 7.17813,5.97873"
         id="path1666" /><path
         style="fill:none;stroke:#000000;stroke-width:1.09194;stroke-linecap:round;stroke-linejoin:round;stroke-dasharray:none"
         d="m 82.638468,146.48915 c 2.776756,2.45398 5.634399,4.827 7.417773,8.27575"
         id="path1668" /><path
         style="fill:none;stroke:#000000;stroke-width:1.09194;stroke-linecap:round;stroke-linejoin:round;stroke-dasharray:none"
         d="m 87.971765,144.6634 c 2.406497,2.59263 4.664683,5.4526 6.224384,9.57161"
         id="path1670" /><path
         style="fill:none;stroke:#000000;stroke-width:1.09194;stroke-linecap:round;stroke-linejoin:round;stroke-dasharray:none"
         d="m 95.993206,150.40805 1.178985,3.49532"
         id="path1672" /><path
         style="fill:none;stroke:#000000;stroke-width:1.09194;stroke-linecap:round;stroke-linejoin:round;stroke-dasharray:none"
         d="m 105.04843,184.18815 c -8.751043,-0.45273 -17.931345,-3.2554 -25.676402,1.79899 5.215497,1.80169 9.632626,4.21395 13.518668,7.03231 3.313165,-1.05616 7.337634,-1.04386 11.613354,-0.65415 -5.780088,-3.60258 -2.82266,-6.54953 0.54438,-8.17715 z"
         id="path1674" /><path
         style="fill:none;stroke:#000000;stroke-width:0.545971;stroke-linecap:round;stroke-linejoin:round;stroke-dasharray:none"
         d="m 102.85843,185.53921 c -8.536488,-0.45902 -15.192502,-1.95192 -21.219857,1.28833"
         id="path1676" /><path
         style="fill:none;stroke:#000000;stroke-width:0.545971;stroke-linecap:round;stroke-linejoin:round;stroke-dasharray:none"
         d="m 101.67516,186.82951 c -6.477463,-0.44127 -14.041878,-1.14869 -17.355671,1.1498"
         id="path1678" /><path
         style="fill:none;stroke:#000000;stroke-width:0.545971;stroke-linecap:round;stroke-linejoin:round;stroke-dasharray:none"
         d="m 101.22735,188.24917 c -4.966621,-0.24689 -11.925861,-0.90656 -14.563689,0.89067"
         id="path1680" /><path
         style="fill:none;stroke:#000000;stroke-width:0.545971;stroke-linecap:round;stroke-linejoin:round;stroke-dasharray:none"
         d="m 101.5184,189.50245 c -4.110863,0.0828 -10.104642,-0.70605 -12.581669,0.91217"
         id="path1682" /><path
         style="fill:none;stroke:#000000;stroke-width:0.545971;stroke-linecap:round;stroke-linejoin:round;stroke-dasharray:none"
         d="m 102.46885,190.79483 c -3.906989,-0.19589 -8.941062,-0.24927 -11.4977,0.89567"
         id="path1684" /><path
         style="fill:none;stroke:#000000;stroke-width:1.09194;stroke-linecap:round;stroke-linejoin:round;stroke-dasharray:none"
         d="m 32.489695,187.60466 c -4.324916,-0.37142 -8.849665,-9.33859 -1.052776,-15.66849"
         id="path1686" /><path
         style="fill:none;stroke:#000000;stroke-width:0.545971;stroke-linecap:round;stroke-linejoin:round;stroke-dasharray:none"
         d="M 29.596965,173.73088 15.765405,166.3186"
         id="path1688" /><path
         style="fill:none;stroke:#000000;stroke-width:0.545971;stroke-linecap:round;stroke-linejoin:round;stroke-dasharray:none"
         d="M 28.80268,174.79376 10.940082,166.30467"
         id="path1690" /><path
         style="fill:none;stroke:#000000;stroke-width:0.545971;stroke-linecap:round;stroke-linejoin:round;stroke-dasharray:none"
         d="M 28.227835,175.77891 11.726697,169.43436"
         id="path1692" /><path
         style="fill:none;stroke:#000000;stroke-width:0.545971;stroke-linecap:round;stroke-linejoin:round;stroke-dasharray:none"
         d="M 27.670219,177.10109 13.473214,173.76187"
         id="path1694" /><path
         style="fill:none;stroke:#000000;stroke-width:0.545971;stroke-linecap:round;stroke-linejoin:round;stroke-dasharray:none"
         d="M 27.354808,178.30163 14.936182,176.35204"
         id="path1696" /><path
         style="fill:none;stroke:#000000;stroke-width:0.545971;stroke-linecap:round;stroke-linejoin:round;stroke-dasharray:none"
         d="m 27.202363,179.59792 -10.81758,-0.68116"
         id="path1698" /><path
         style="fill:none;stroke:#000000;stroke-width:0.545971;stroke-linecap:round;stroke-linejoin:round;stroke-dasharray:none"
         d="m 27.285158,181.28725 -8.97954,1.03032"
         id="path1700" /><path
         style="fill:none;stroke:#000000;stroke-width:0.545971;stroke-linecap:round;stroke-linejoin:round;stroke-dasharray:none"
         d="m 27.508605,182.37126 -10.199497,2.54977"
         id="path1702" /><path
         style="fill:none;stroke:#000000;stroke-width:0.545971;stroke-linecap:round;stroke-linejoin:round;stroke-dasharray:none"
         d="m 27.82066,183.31605 -11.593602,4.43194"
         id="path1704" /><path
         style="fill:none;stroke:#000000;stroke-width:0.545971;stroke-linecap:round;stroke-linejoin:round;stroke-dasharray:none"
         d="m 28.258231,184.26296 -12.984336,5.97527"
         id="path1706" /><path
         style="fill:none;stroke:#000000;stroke-width:0.545971;stroke-linecap:round;stroke-linejoin:round;stroke-dasharray:none"
         d="m 28.826149,185.17666 -14.912881,8.61632"
         id="path1708" /><path
         style="fill:none;stroke:#000000;stroke-width:0.545971;stroke-linecap:round;stroke-linejoin:round;stroke-dasharray:none"
         d="M 29.448285,185.9375 11.869943,199.13135"
         id="path1710" /><path
         style="fill:none;stroke:#000000;stroke-width:0.545971;stroke-linecap:round;stroke-linejoin:round;stroke-dasharray:none"
         d="M 30.091856,186.54163 18.58505,198.14084"
         id="path1712" /><path
         style="fill:none;stroke:#000000;stroke-width:1.09194;stroke-linecap:round;stroke-linejoin:round;stroke-dasharray:none"
         d="m 125.16098,163.65378 c -3.16812,-0.0411 -5.81824,-0.35309 -9.81477,1.18183 -3.99654,1.53494 -6.72989,7.8715 -9.48122,13.51954 l 5.21694,10.84832 c 3.45343,5.98995 8.93189,6.36204 11.73962,6.27444"
         id="path1714" /><path
         style="fill:none;stroke:#000000;stroke-width:1.09194;stroke-linecap:round;stroke-linejoin:round;stroke-dasharray:none"
         d="m 127.06447,164.88035 c -4.14056,0.90571 -7.39458,2.52163 -10.08514,4.58898 1.37278,8.86464 3.23675,12.99722 5.08085,17.82613 6.25353,2.86095 8.87607,1.09143 9.20902,-3.59793 4.27635,-2.33938 8.97877,-3.55239 12.71894,-7.30925"
         id="path1716" /><path
         style="fill:none;stroke:#000000;stroke-width:1.09194;stroke-linecap:round;stroke-linejoin:round;stroke-dasharray:none"
         d="m 116.97933,169.46933 c 1.18604,7.55172 0.47623,14.28981 -1.72385,20.38831"
         id="path1718" /><path
         style="fill:#f4e79c;fill-opacity:1;stroke:#000000;stroke-width:0.545971;stroke-linecap:round;stroke-linejoin:round;stroke-dasharray:none"
         d="m 129.45461,169.68738 c -2.71619,0.0557 -3.77367,2.65022 -3.71989,4.08856 0.0538,1.43836 1.65973,3.30487 3.24357,3.37989 1.58383,0.075 5.15547,-1.73786 5.10352,-3.76148 -0.0519,-2.02362 -1.911,-3.76279 -4.6272,-3.70697 z"
         id="path1720" /><path
         style="fill:#000000;stroke:#000000;stroke-width:0;stroke-linecap:round;stroke-linejoin:round;stroke-dasharray:none"
         d="m 129.29584,171.94973 c -0.68256,0.26788 -1.55361,1.19619 -1.2929,2.04429 0.26071,0.84807 1.33757,1.26527 2.08678,1.00851 0.7492,-0.25679 1.39357,-1.04814 1.15679,-1.93526 -0.23677,-0.88713 -1.26811,-1.38544 -1.95067,-1.11754 z"
         id="path1722" /><path
         style="fill:none;stroke:#000000;stroke-width:0.545971;stroke-linecap:round;stroke-linejoin:round;stroke-dasharray:none"
         d="m 27.253624,178.96016 c 14.007296,-0.71213 27.796032,-0.67662 40.187494,-7.36478 18.535874,-8.77579 31.986779,-8.09702 44.316572,-3.87053 2.70849,-0.10917 3.81286,0.92627 5.22164,1.74448"
         id="path1724" /><path
         style="fill:none;stroke:#000000;stroke-width:1.09194;stroke-linecap:round;stroke-linejoin:round;stroke-dasharray:none"
         d="m 49.584953,188.84135 c 1.595378,5.00619 6.84447,7.04574 12.870874,8.45418"
         id="path1726" /><path
         style="fill:none;stroke:#000000;stroke-width:0.545971;stroke-linecap:round;stroke-linejoin:round;stroke-dasharray:none"
         d="m 50.582678,190.96917 -6.827536,1.50121"
         id="path1728" /><path
         style="fill:none;stroke:#000000;stroke-width:0.545971;stroke-linecap:round;stroke-linejoin:round;stroke-dasharray:none"
         d="m 51.834059,192.51468 -7.35824,2.43022"
         id="path1730" /><path
         style="fill:none;stroke:#000000;stroke-width:0.545971;stroke-linecap:round;stroke-linejoin:round;stroke-dasharray:none"
         d="m 53.729981,194.03228 -7.925168,3.15768"
         id="path1732" /><path
         style="fill:none;stroke:#000000;stroke-width:0.545971;stroke-linecap:round;stroke-linejoin:round;stroke-dasharray:none"
         d="m 56.247147,195.36146 -9.125875,4.09702"
         id="path1734" /><path
         style="fill:none;stroke:#000000;stroke-width:1.09194;stroke-linecap:round;stroke-linejoin:round;stroke-dasharray:none"
         d="m 92.487858,201.42375 c 3.726525,0.42136 7.642492,0.96199 10.150462,0.61633"
         id="path1736" /><path
         style="fill:none;stroke:#000000;stroke-width:0.545971;stroke-linecap:round;stroke-linejoin:round;stroke-dasharray:none"
         d="m 95.867211,201.80992 -7.466348,4.50119"
         id="path1738" /><path
         style="fill:none;stroke:#000000;stroke-width:0.545971;stroke-linecap:round;stroke-linejoin:round;stroke-dasharray:none"
         d="m 98.178739,202.03238 -10.409774,7.83625"
         id="path1740" /><path
         style="fill:none;stroke:#000000;stroke-width:0.545971;stroke-linecap:round;stroke-linejoin:round;stroke-dasharray:none"
         d="M 100.17234,202.14254 88.843572,212.6707"
         id="path1742" /></g></g></svg>
